# xmcd CD database file
#
# Track frame offsets:
#	187
#	14000
#	27487
#	40162
#	53050
#	62525
#	76225
#	89500
#	100175
#	109700
#	117862
#	129050
#	139700
#	153012
#	167812
#	178112
#	192375
#	205950
#	217750
#	228712
#
# Disc length: 3202 seconds
#
# Revision: 0
# Processed by: cddbd v1.5.1PL0 Copyright (c) Steve Scherf et al.
# Submitted via: CDex 1.51
#
DISCID=090c8014
DTITLE=Patti Page - The Best of Patti Page
DYEAR=1900
DGENRE=Blues
TTITLE0=Tennessee Waltz
TTITLE1=Changing Partners
TTITLE2=Why Don't You Believe Me？
TTITLE3=You Belong To Me
TTITLE4=Release Me
TTITLE5=Mack The Knife
TTITLE6=Would I Love You
TTITLE7=Autumn Leaves
TTITLE8=Route 66
TTITLE9=Memories Of You
TTITLE10=The Doggie In The Window
TTITLE11=It's A Sin To Tell A Lie
TTITLE12=Lover Come Back To Me
TTITLE13=I Went To Your Wedding
TTITLE14=Tenderly
TTITLE15=PSouth Of The Border
TTITLE16=Mockin' Bird Hill
TTITLE17=The Sound Of Music
TTITLE18=Let Me Go,Lover
TTITLE19=Till We Meet Again
EXTD=
EXTT0=
EXTT1=
EXTT2=
EXTT3=
EXTT4=
EXTT5=
EXTT6=
EXTT7=
EXTT8=
EXTT9=
EXTT10=
EXTT11=
EXTT12=
EXTT13=
EXTT14=
EXTT15=
EXTT16=
EXTT17=
EXTT18=
EXTT19=
PLAYORDER=
